<svg width="50" height="50" viewBox="0 0 50 50" fill="none" xmlns="http://www.w3.org/2000/svg">
<rect width="50" height="50" rx="11" fill="#361042"/>
<path d="M13.4062 30.5V28.5625L20.1797 20.1328H22.5234V22.1406L15.6797 30.5H13.4062ZM13.6172 22.3984V20.1328H19.5L17.5391 22.3984H13.6172ZM16.375 30.5L18.3438 28.2266H22.3828V30.5H16.375Z" fill="url(#paint0_linear_1_653)"/>
<path d="M31.1562 23.5L30.7188 22.3672H27.3281L28.0469 20.3125H29.9219L27.1484 13.1328H30.5156L34.6484 23.5H31.1562ZM23.0703 23.5L26.7734 13.6016L28.3047 17.7188L26.4062 23.5H23.0703Z" fill="url(#paint1_linear_1_653)"/>
<path d="M25.9688 36.5L23.8984 34.4297V28.2031L25.9688 26.1328H27.3516V34.4297H30.3125V36.5H25.9688ZM30.4688 29.2422V28.2031H27.8984V26.1328H32.1094L33.9219 28.2031V29.2422H30.4688ZM30.8594 36.5V32.8047H29.1797V30.75H33.9219V36.5H30.8594Z" fill="url(#paint2_linear_1_653)"/>
<defs>
<linearGradient id="paint0_linear_1_653" x1="18" y1="15.5" x2="18" y2="35.5" gradientUnits="userSpaceOnUse">
<stop stop-color="#F5ECFB"/>
<stop offset="1" stop-color="#9642B7"/>
</linearGradient>
<linearGradient id="paint1_linear_1_653" x1="29" y1="8.5" x2="29" y2="28.5" gradientUnits="userSpaceOnUse">
<stop stop-color="#F5ECFB"/>
<stop offset="1" stop-color="#9642B7"/>
</linearGradient>
<linearGradient id="paint2_linear_1_653" x1="29" y1="21.5" x2="29" y2="41.5" gradientUnits="userSpaceOnUse">
<stop stop-color="#F5ECFB"/>
<stop offset="1" stop-color="#9642B7"/>
</linearGradient>
</defs>
</svg>
