<svg width="360" height="800" viewBox="0 0 360 800" fill="none" xmlns="http://www.w3.org/2000/svg">
<g clip-path="url(#clip0_1_2)">
<rect width="360" height="800" fill="#EBD8F6"/>
<g filter="url(#filter0_f_1_2)">
<ellipse cx="350" cy="21.5" rx="123" ry="96.5" fill="#DDB8EF"/>
</g>
<g filter="url(#filter1_f_1_2)">
<ellipse cx="171" cy="354.5" rx="149" ry="95.5" fill="#DDB8EF"/>
</g>
<g filter="url(#filter2_f_1_2)">
<ellipse cx="90" cy="719" rx="142" ry="125" fill="#DDB8EF"/>
</g>
<path d="M309.736 13.7148C310.971 12.6864 312.527 12.1232 314.134 12.1232C315.741 12.1232 317.297 12.6864 318.532 13.7148" stroke="black" stroke-linecap="round" stroke-linejoin="round"/>
<path d="M307.5 11.4971C309.326 9.88789 311.676 9 314.109 9C316.543 9 318.893 9.88789 320.719 11.4971" stroke="black" stroke-linecap="round" stroke-linejoin="round"/>
<path d="M311.942 15.9387C312.576 15.4882 313.334 15.2461 314.112 15.2461C314.89 15.2461 315.649 15.4882 316.283 15.9387" stroke="black" stroke-linecap="round" stroke-linejoin="round"/>
<path d="M314.109 18.3688H314.115" stroke="black" stroke-linecap="round" stroke-linejoin="round"/>
<path d="M294.75 18V11.75" stroke="black" stroke-linecap="round" stroke-linejoin="round"/>
<path d="M298.5 18V8" stroke="black" stroke-linecap="round" stroke-linejoin="round"/>
<path d="M291 18V15.5" stroke="black" stroke-linecap="round" stroke-linejoin="round"/>
<path d="M17.6406 11V19H16.6719V12.0156H16.625L14.6719 13.3125V12.3281L16.6719 11H17.6406ZM22.5977 19.1094C22.2695 19.1042 21.9414 19.0417 21.6133 18.9219C21.2852 18.8021 20.9857 18.6003 20.7148 18.3164C20.444 18.0299 20.2266 17.6432 20.0625 17.1562C19.8984 16.6667 19.8164 16.0521 19.8164 15.3125C19.8164 14.6042 19.8828 13.9766 20.0156 13.4297C20.1484 12.8802 20.3411 12.418 20.5938 12.043C20.8464 11.6654 21.151 11.3789 21.5078 11.1836C21.8672 10.9883 22.2721 10.8906 22.7227 10.8906C23.1706 10.8906 23.569 10.9805 23.918 11.1602C24.2695 11.3372 24.556 11.5846 24.7773 11.9023C24.9987 12.2201 25.1419 12.5859 25.207 13H24.2539C24.1654 12.6406 23.9935 12.3424 23.7383 12.1055C23.4831 11.8685 23.1445 11.75 22.7227 11.75C22.1029 11.75 21.6146 12.0195 21.2578 12.5586C20.9036 13.0977 20.7253 13.8542 20.7227 14.8281H20.7852C20.931 14.6068 21.1042 14.418 21.3047 14.2617C21.5078 14.1029 21.7318 13.9805 21.9766 13.8945C22.2214 13.8086 22.4805 13.7656 22.7539 13.7656C23.2122 13.7656 23.6315 13.8802 24.0117 14.1094C24.3919 14.3359 24.6966 14.6497 24.9258 15.0508C25.1549 15.4492 25.2695 15.9062 25.2695 16.4219C25.2695 16.9167 25.1589 17.3698 24.9375 17.7812C24.7161 18.1901 24.4049 18.5156 24.0039 18.7578C23.6055 18.9974 23.1367 19.1146 22.5977 19.1094ZM22.5977 18.25C22.9258 18.25 23.2201 18.168 23.4805 18.0039C23.7435 17.8398 23.9505 17.6198 24.1016 17.3437C24.2552 17.0677 24.332 16.7604 24.332 16.4219C24.332 16.0911 24.2578 15.7904 24.1094 15.5195C23.9635 15.2461 23.7617 15.0286 23.5039 14.8672C23.2487 14.7057 22.957 14.625 22.6289 14.625C22.3815 14.625 22.151 14.6745 21.9375 14.7734C21.724 14.8698 21.5365 15.0026 21.375 15.1719C21.2161 15.3411 21.0911 15.5352 21 15.7539C20.9089 15.9701 20.8633 16.1979 20.8633 16.4375C20.8633 16.7552 20.9375 17.0521 21.0859 17.3281C21.237 17.6042 21.4427 17.8268 21.7031 17.9961C21.9661 18.1654 22.2643 18.25 22.5977 18.25ZM27.1172 19.0625C26.9245 19.0625 26.7591 18.9935 26.6211 18.8555C26.4831 18.7174 26.4141 18.5521 26.4141 18.3594C26.4141 18.1667 26.4831 18.0013 26.6211 17.8633C26.7591 17.7253 26.9245 17.6562 27.1172 17.6562C27.3099 17.6562 27.4753 17.7253 27.6133 17.8633C27.7513 18.0013 27.8203 18.1667 27.8203 18.3594C27.8203 18.487 27.7878 18.6042 27.7227 18.7109C27.6602 18.8177 27.5755 18.9036 27.4688 18.9687C27.3646 19.0313 27.2474 19.0625 27.1172 19.0625ZM31.7891 19.1094C31.2005 19.1094 30.6992 18.9492 30.2852 18.6289C29.8711 18.306 29.5547 17.8385 29.3359 17.2266C29.1172 16.612 29.0078 15.8698 29.0078 15C29.0078 14.1354 29.1172 13.3971 29.3359 12.7852C29.5573 12.1706 29.875 11.7018 30.2891 11.3789C30.7057 11.0534 31.2057 10.8906 31.7891 10.8906C32.3724 10.8906 32.8711 11.0534 33.2852 11.3789C33.7018 11.7018 34.0195 12.1706 34.2383 12.7852C34.4596 13.3971 34.5703 14.1354 34.5703 15C34.5703 15.8698 34.4609 16.612 34.2422 17.2266C34.0234 17.8385 33.707 18.306 33.293 18.6289C32.8789 18.9492 32.3776 19.1094 31.7891 19.1094ZM31.7891 18.25C32.3724 18.25 32.8255 17.9687 33.1484 17.4062C33.4714 16.8437 33.6328 16.0417 33.6328 15C33.6328 14.3073 33.5586 13.7174 33.4102 13.2305C33.2643 12.7435 33.0534 12.3724 32.7773 12.1172C32.5039 11.862 32.1745 11.7344 31.7891 11.7344C31.2109 11.7344 30.7591 12.0195 30.4336 12.5898C30.1081 13.1576 29.9453 13.9609 29.9453 15C29.9453 15.6927 30.0182 16.2812 30.1641 16.7656C30.3099 17.25 30.5195 17.6185 30.793 17.8711C31.069 18.1237 31.401 18.25 31.7891 18.25ZM38.7109 19.1094C38.3828 19.1042 38.0547 19.0417 37.7266 18.9219C37.3984 18.8021 37.099 18.6003 36.8281 18.3164C36.5573 18.0299 36.3398 17.6432 36.1758 17.1562C36.0117 16.6667 35.9297 16.0521 35.9297 15.3125C35.9297 14.6042 35.9961 13.9766 36.1289 13.4297C36.2617 12.8802 36.4544 12.418 36.707 12.043C36.9596 11.6654 37.2643 11.3789 37.6211 11.1836C37.9805 10.9883 38.3854 10.8906 38.8359 10.8906C39.2839 10.8906 39.6823 10.9805 40.0313 11.1602C40.3828 11.3372 40.6693 11.5846 40.8906 11.9023C41.112 12.2201 41.2552 12.5859 41.3203 13H40.3672C40.2786 12.6406 40.1068 12.3424 39.8516 12.1055C39.5964 11.8685 39.2578 11.75 38.8359 11.75C38.2161 11.75 37.7279 12.0195 37.3711 12.5586C37.0169 13.0977 36.8385 13.8542 36.8359 14.8281H36.8984C37.0443 14.6068 37.2174 14.418 37.418 14.2617C37.6211 14.1029 37.8451 13.9805 38.0898 13.8945C38.3346 13.8086 38.5938 13.7656 38.8672 13.7656C39.3255 13.7656 39.7448 13.8802 40.125 14.1094C40.5052 14.3359 40.8099 14.6497 41.0391 15.0508C41.2682 15.4492 41.3828 15.9062 41.3828 16.4219C41.3828 16.9167 41.2721 17.3698 41.0508 17.7812C40.8294 18.1901 40.5182 18.5156 40.1172 18.7578C39.7188 18.9974 39.25 19.1146 38.7109 19.1094ZM38.7109 18.25C39.0391 18.25 39.3333 18.168 39.5938 18.0039C39.8568 17.8398 40.0638 17.6198 40.2148 17.3437C40.3685 17.0677 40.4453 16.7604 40.4453 16.4219C40.4453 16.0911 40.3711 15.7904 40.2227 15.5195C40.0768 15.2461 39.875 15.0286 39.6172 14.8672C39.362 14.7057 39.0703 14.625 38.7422 14.625C38.4948 14.625 38.2643 14.6745 38.0508 14.7734C37.8372 14.8698 37.6497 15.0026 37.4883 15.1719C37.3294 15.3411 37.2044 15.5352 37.1133 15.7539C37.0221 15.9701 36.9766 16.1979 36.9766 16.4375C36.9766 16.7552 37.0508 17.0521 37.1992 17.3281C37.3503 17.6042 37.556 17.8268 37.8164 17.9961C38.0794 18.1654 38.3776 18.25 38.7109 18.25Z" fill="black"/>
<rect x="330" y="9" width="8" height="9" rx="2" fill="#1BFB3D"/>
<path d="M341.355 9H331.173C330.37 9 329.719 9.65122 329.719 10.4545V16.2727C329.719 17.0761 330.37 17.7273 331.173 17.7273H341.355C342.158 17.7273 342.81 17.0761 342.81 16.2727V10.4545C342.81 9.65122 342.158 9 341.355 9Z" stroke="black" stroke-linecap="round" stroke-linejoin="round"/>
<path d="M345.719 14.0909V12.6364" stroke="black" stroke-linecap="round" stroke-linejoin="round"/>
</g>
<defs>
<filter id="filter0_f_1_2" x="127" y="-175" width="446" height="393" filterUnits="userSpaceOnUse" color-interpolation-filters="sRGB">
<feFlood flood-opacity="0" result="BackgroundImageFix"/>
<feBlend mode="normal" in="SourceGraphic" in2="BackgroundImageFix" result="shape"/>
<feGaussianBlur stdDeviation="50" result="effect1_foregroundBlur_1_2"/>
</filter>
<filter id="filter1_f_1_2" x="-78" y="159" width="498" height="391" filterUnits="userSpaceOnUse" color-interpolation-filters="sRGB">
<feFlood flood-opacity="0" result="BackgroundImageFix"/>
<feBlend mode="normal" in="SourceGraphic" in2="BackgroundImageFix" result="shape"/>
<feGaussianBlur stdDeviation="50" result="effect1_foregroundBlur_1_2"/>
</filter>
<filter id="filter2_f_1_2" x="-152" y="494" width="484" height="450" filterUnits="userSpaceOnUse" color-interpolation-filters="sRGB">
<feFlood flood-opacity="0" result="BackgroundImageFix"/>
<feBlend mode="normal" in="SourceGraphic" in2="BackgroundImageFix" result="shape"/>
<feGaussianBlur stdDeviation="50" result="effect1_foregroundBlur_1_2"/>
</filter>
<clipPath id="clip0_1_2">
<rect width="360" height="800" fill="white"/>
</clipPath>
</defs>
</svg>
